<svg xmlns="http://www.w3.org/2000/svg" xmlns:svgjs="http://svgjs.com/svgjs" xmlns:xlink="http://www.w3.org/1999/xlink" width="288" height="288"><svg xmlns="http://www.w3.org/2000/svg" width="288" height="288" viewBox="0 0 63 53"><g class="color000 svgShape" data-name="Group 4" transform="translate(-7.667 -16.648)"><g class="color000 svgShape" data-name="Group 24"><rect width="54" height="53" fill="#9d454a" class="color457b9d svgShape" data-name="Rectangle 9" rx="23" transform="translate(16.667 16.648)"/></g><rect width="41" height="53" fill="#9d454a" class="color457b9d svgShape" data-name="Rectangle 10" rx="12" transform="translate(7.667 16.648)"/></g><g class="color000 svgShape" data-name="arrow (1)"><g class="color000 svgShape" data-name="Group 25" transform="translate(16.383 18.92)"><path fill="#fff" d="M27.826,138.039h0L22.08,132.32a1.1,1.1,0,0,0-1.551,1.559l3.857,3.839H1.1a1.1,1.1,0,0,0,0,2.2H24.386l-3.857,3.839a1.1,1.1,0,0,0,1.551,1.559l5.745-5.718h0A1.1,1.1,0,0,0,27.826,138.039Z" class="colorfff svgShape" data-name="Path 12" transform="translate(0 -132)"/></g></g></svg></svg>